<svg viewBox="-1 -1 502 127" xmlns="http://www.w3.org/2000/svg" font-family="IBM Plex Sans" font-weight="300" width="500" height="125" fill="none" stroke="black">
<path d="M 0,62.48 C 1.7,62.47 6.8,62.46 10.2,62.46 C 13.61,62.46 17.01,62.45 20.41,62.46 C 23.81,62.46 27.21,62.47 30.61,62.5 C 34.01,62.52 37.41,62.56 40.82,62.61 C 44.22,62.67 47.62,62.76 51.02,62.85 C 54.42,62.95 57.82,63.08 61.22,63.19 C 64.63,63.3 68.03,63.45 71.43,63.5 C 74.83,63.55 78.23,63.62 81.63,63.5 C 85.03,63.37 88.44,63.19 91.84,62.75 C 95.24,62.32 98.64,61.71 102.04,60.91 C 105.44,60.11 108.84,59 112.24,57.94 C 115.65,56.89 119.05,55.5 122.45,54.56 C 125.85,53.63 129.25,52.53 132.65,52.33 C 136.05,52.13 139.46,52.17 142.86,53.36 C 146.26,54.55 149.66,56.54 153.06,59.46 C 156.46,62.37 159.86,66.55 163.27,70.84 C 166.67,75.14 170.07,80.73 173.47,85.21 C 176.87,89.68 180.27,94.84 183.67,97.69 C 187.07,100.55 190.48,102.84 193.88,102.34 C 197.28,101.84 200.68,99.36 204.08,94.69 C 207.48,90.03 210.88,82.43 214.29,74.34 C 217.69,66.24 221.09,55.36 224.49,46.12 C 227.89,36.88 231.29,26.23 234.69,18.91 C 238.1,11.6 241.5,5.02 244.9,2.24 C 248.3,-0.54 251.7,-0.54 255.1,2.24 C 258.5,5.02 261.9,11.6 265.31,18.91 C 268.71,26.23 272.11,36.88 275.51,46.12 C 278.91,55.36 282.31,66.24 285.71,74.34 C 289.12,82.43 292.52,90.03 295.92,94.69 C 299.32,99.36 302.72,101.84 306.12,102.34 C 309.52,102.84 312.93,100.55 316.33,97.69 C 319.73,94.84 323.13,89.68 326.53,85.21 C 329.93,80.73 333.33,75.14 336.73,70.84 C 340.14,66.55 343.54,62.37 346.94,59.46 C 350.34,56.54 353.74,54.55 357.14,53.36 C 360.54,52.17 363.95,52.13 367.35,52.33 C 370.75,52.53 374.15,53.63 377.55,54.56 C 380.95,55.5 384.35,56.89 387.76,57.94 C 391.16,59 394.56,60.11 397.96,60.91 C 401.36,61.71 404.76,62.32 408.16,62.75 C 411.56,63.19 414.97,63.37 418.37,63.5 C 421.77,63.62 425.17,63.55 428.57,63.5 C 431.97,63.45 435.37,63.3 438.78,63.19 C 442.18,63.08 445.58,62.95 448.98,62.85 C 452.38,62.76 455.78,62.67 459.18,62.61 C 462.59,62.56 465.99,62.52 469.39,62.5 C 472.79,62.47 476.19,62.46 479.59,62.46 C 482.99,62.45 486.39,62.46 489.8,62.46 C 493.2,62.46 498.3,62.47 500,62.48" stroke="rgba(255, 13, 87, 1)" stroke-width="2" />
<path d="M 0,62.48 C 1.7,62.47 6.8,62.46 10.2,62.46 C 13.61,62.45 17.01,62.44 20.41,62.44 C 23.81,62.44 27.21,62.43 30.61,62.45 C 34.01,62.46 37.41,62.48 40.82,62.53 C 44.22,62.58 47.62,62.65 51.02,62.75 C 54.42,62.85 57.82,62.99 61.22,63.13 C 64.63,63.28 68.03,63.48 71.43,63.61 C 74.83,63.74 78.23,63.92 81.63,63.92 C 85.03,63.93 88.44,63.92 91.84,63.64 C 95.24,63.36 98.64,62.94 102.04,62.23 C 105.44,61.52 108.84,60.52 112.24,59.38 C 115.65,58.24 119.05,56.7 122.45,55.39 C 125.85,54.08 129.25,52.43 132.65,51.53 C 136.05,50.63 139.46,49.71 142.86,49.99 C 146.26,50.27 149.66,51.1 153.06,53.2 C 156.46,55.3 159.86,58.58 163.27,62.59 C 166.67,66.59 170.07,72.12 173.47,77.23 C 176.87,82.33 180.27,88.69 183.67,93.22 C 187.07,97.76 190.48,102.52 193.88,104.47 C 197.28,106.41 200.68,107.06 204.08,104.88 C 207.48,102.69 210.88,97.84 214.29,91.36 C 217.69,84.88 221.09,75.21 224.49,65.98 C 227.89,56.75 231.29,45.1 234.69,35.98 C 238.1,26.86 241.5,17.2 244.9,11.28 C 248.3,5.36 251.7,1.17 255.1,0.47 C 258.5,-0.22 261.9,2.48 265.31,7.1 C 268.71,11.73 272.11,20.1 275.51,28.23 C 278.91,36.36 282.31,47.15 285.71,55.89 C 289.12,64.62 292.52,74.04 295.92,80.63 C 299.32,87.22 302.72,92.54 306.12,95.42 C 309.52,98.3 312.93,98.74 316.33,97.91 C 319.73,97.09 323.13,93.75 326.53,90.45 C 329.93,87.15 333.33,82.16 336.73,78.1 C 340.14,74.04 343.54,69.46 346.94,66.08 C 350.34,62.7 353.74,59.79 357.14,57.83 C 360.54,55.88 363.95,54.87 367.35,54.35 C 370.75,53.83 374.15,54.24 377.55,54.69 C 380.95,55.14 384.35,56.21 387.76,57.06 C 391.16,57.9 394.56,58.98 397.96,59.77 C 401.36,60.57 404.76,61.31 408.16,61.84 C 411.56,62.37 414.97,62.71 418.37,62.95 C 421.77,63.19 425.17,63.24 428.57,63.28 C 431.97,63.31 435.37,63.23 438.78,63.17 C 442.18,63.1 445.58,62.99 448.98,62.91 C 452.38,62.83 455.78,62.74 459.18,62.68 C 462.59,62.62 465.99,62.58 469.39,62.54 C 472.79,62.51 476.19,62.5 479.59,62.48 C 482.99,62.47 486.39,62.47 489.8,62.47 C 493.2,62.47 498.3,62.48 500,62.48" stroke="rgba(230, 26.67, 102.78, 1)" stroke-width="2" />
<path d="M 0,62.48 C 1.7,62.48 6.8,62.47 10.2,62.46 C 13.61,62.45 17.01,62.43 20.41,62.42 C 23.81,62.42 27.21,62.4 30.61,62.4 C 34.01,62.41 37.41,62.41 40.82,62.45 C 44.22,62.48 47.62,62.53 51.02,62.62 C 54.42,62.71 57.82,62.84 61.22,63 C 64.63,63.16 68.03,63.38 71.43,63.58 C 74.83,63.77 78.23,64.04 81.63,64.18 C 85.03,64.32 88.44,64.49 91.84,64.39 C 95.24,64.29 98.64,64.12 102.04,63.59 C 105.44,63.06 108.84,62.28 112.24,61.2 C 115.65,60.11 119.05,58.6 122.45,57.08 C 125.85,55.55 129.25,53.55 132.65,52.06 C 136.05,50.57 139.46,48.8 142.86,48.13 C 146.26,47.47 149.66,47.04 153.06,48.07 C 156.46,49.1 159.86,51.08 163.27,54.32 C 166.67,57.55 170.07,62.35 173.47,67.47 C 176.87,72.59 180.27,79.38 183.67,85.05 C 187.07,90.73 190.48,97.38 193.88,101.53 C 197.28,105.67 200.68,109.38 204.08,109.95 C 207.48,110.51 210.88,108.99 214.29,104.91 C 217.69,100.82 221.09,93.54 224.49,85.43 C 227.89,77.32 231.29,66.07 234.69,56.24 C 238.1,46.42 241.5,34.84 244.9,26.5 C 248.3,18.15 251.7,10.27 255.1,6.18 C 258.5,2.1 261.9,0.59 265.31,1.98 C 268.71,3.36 272.11,8.44 275.51,14.48 C 278.91,20.52 282.31,29.91 285.71,38.23 C 289.12,46.55 292.52,56.66 295.92,64.38 C 299.32,72.09 302.72,79.6 306.12,84.52 C 309.52,89.43 312.93,92.56 316.33,93.86 C 319.73,95.16 323.13,94.05 326.53,92.32 C 329.93,90.59 333.33,86.81 336.73,83.47 C 340.14,80.13 343.54,75.7 346.94,72.27 C 350.34,68.83 353.74,65.35 357.14,62.87 C 360.54,60.38 363.95,58.54 367.35,57.35 C 370.75,56.17 374.15,55.85 377.55,55.76 C 380.95,55.67 384.35,56.29 387.76,56.82 C 391.16,57.36 394.56,58.27 397.96,58.97 C 401.36,59.66 404.76,60.44 408.16,61 C 411.56,61.56 414.97,62.02 418.37,62.35 C 421.77,62.67 425.17,62.84 428.57,62.96 C 431.97,63.08 435.37,63.07 438.78,63.06 C 442.18,63.05 445.58,62.97 448.98,62.92 C 452.38,62.86 455.78,62.78 459.18,62.73 C 462.59,62.67 465.99,62.62 469.39,62.59 C 472.79,62.55 476.19,62.53 479.59,62.51 C 482.99,62.49 486.39,62.49 489.8,62.48 C 493.2,62.48 498.3,62.48 500,62.48" stroke="rgba(205, 40.33, 118.56, 1)" stroke-width="2" />
<path d="M 0,62.49 C 1.7,62.48 6.8,62.47 10.2,62.46 C 13.61,62.45 17.01,62.43 20.41,62.42 C 23.81,62.41 27.21,62.38 30.61,62.37 C 34.01,62.37 37.41,62.35 40.82,62.37 C 44.22,62.38 47.62,62.4 51.02,62.48 C 54.42,62.55 57.82,62.65 61.22,62.81 C 64.63,62.96 68.03,63.18 71.43,63.42 C 74.83,63.66 78.23,63.98 81.63,64.23 C 85.03,64.48 88.44,64.81 91.84,64.91 C 95.24,65.01 98.64,65.11 102.04,64.82 C 105.44,64.53 108.84,64.07 112.24,63.17 C 115.65,62.27 119.05,60.97 122.45,59.42 C 125.85,57.86 129.25,55.75 132.65,53.85 C 136.05,51.95 139.46,49.53 142.86,48.01 C 146.26,46.48 149.66,44.84 153.06,44.68 C 156.46,44.51 159.86,44.96 163.27,47.03 C 166.67,49.11 170.07,52.59 173.47,57.11 C 176.87,61.63 180.27,68.03 183.67,74.16 C 187.07,80.29 190.48,88.02 193.88,93.88 C 197.28,99.73 200.68,106.05 204.08,109.3 C 207.48,112.54 210.88,114.53 214.29,113.34 C 217.69,112.14 221.09,108.12 224.49,102.1 C 227.89,96.09 231.29,86.6 234.69,77.26 C 238.1,67.92 241.5,55.82 244.9,46.06 C 248.3,36.29 251.7,25.67 255.1,18.69 C 258.5,11.7 261.9,6.18 265.31,4.15 C 268.71,2.12 272.11,3.29 275.51,6.52 C 278.91,9.74 282.31,16.61 285.71,23.5 C 289.12,30.4 292.52,39.99 295.92,47.9 C 299.32,55.81 302.72,64.61 306.12,70.97 C 309.52,77.32 312.93,82.76 316.33,86.03 C 319.73,89.3 323.13,90.55 326.53,90.6 C 329.93,90.64 333.33,88.53 336.73,86.31 C 340.14,84.09 343.54,80.36 346.94,77.28 C 350.34,74.2 353.74,70.57 357.14,67.85 C 360.54,65.14 363.95,62.68 367.35,60.98 C 370.75,59.28 374.15,58.26 377.55,57.64 C 380.95,57.03 384.35,57.12 387.76,57.28 C 391.16,57.43 394.56,58.08 397.96,58.59 C 401.36,59.1 404.76,59.81 408.16,60.34 C 411.56,60.87 414.97,61.39 418.37,61.76 C 421.77,62.14 425.17,62.4 428.57,62.58 C 431.97,62.77 435.37,62.84 438.78,62.88 C 442.18,62.93 445.58,62.9 448.98,62.87 C 452.38,62.85 455.78,62.79 459.18,62.75 C 462.59,62.71 465.99,62.66 469.39,62.62 C 472.79,62.59 476.19,62.56 479.59,62.54 C 482.99,62.52 486.39,62.51 489.8,62.5 C 493.2,62.49 498.3,62.49 500,62.49" stroke="rgba(180, 54, 134.33, 1)" stroke-width="2" />
<path d="M 0,62.5 C 1.7,62.49 6.8,62.48 10.2,62.47 C 13.61,62.46 17.01,62.44 20.41,62.43 C 23.81,62.41 27.21,62.38 30.61,62.36 C 34.01,62.34 37.41,62.31 40.82,62.3 C 44.22,62.3 47.62,62.29 51.02,62.34 C 54.42,62.38 57.82,62.44 61.22,62.58 C 64.63,62.71 68.03,62.9 71.43,63.15 C 74.83,63.4 78.23,63.75 81.63,64.08 C 85.03,64.41 88.44,64.86 91.84,65.14 C 95.24,65.42 98.64,65.78 102.04,65.77 C 105.44,65.75 108.84,65.66 112.24,65.06 C 115.65,64.45 119.05,63.53 122.45,62.13 C 125.85,60.73 129.25,58.76 132.65,56.68 C 136.05,54.59 139.46,51.83 142.86,49.63 C 146.26,47.42 149.66,44.77 153.06,43.43 C 156.46,42.1 159.86,40.96 163.27,41.62 C 166.67,42.28 170.07,44.03 173.47,47.41 C 176.87,50.78 180.27,56.02 183.67,61.86 C 187.07,67.7 190.48,75.59 193.88,82.45 C 197.28,89.3 200.68,97.47 204.08,103 C 207.48,108.53 210.88,113.8 214.29,115.63 C 217.69,117.47 221.09,117.19 224.49,114.01 C 227.89,110.82 231.29,104.24 234.69,96.5 C 238.1,88.77 241.5,77.6 244.9,67.6 C 248.3,57.59 251.7,45.51 255.1,36.48 C 258.5,27.44 261.9,18.56 265.31,13.36 C 268.71,8.17 272.11,5.29 275.51,5.31 C 278.91,5.33 282.31,8.83 285.71,13.48 C 289.12,18.12 292.52,26.03 295.92,33.18 C 299.32,40.33 302.72,49.36 306.12,56.39 C 309.52,63.42 312.93,70.51 316.33,75.36 C 319.73,80.21 323.13,83.66 326.53,85.48 C 329.93,87.3 333.33,87.11 336.73,86.28 C 340.14,85.45 343.54,82.86 346.94,80.51 C 350.34,78.16 353.74,74.82 357.14,72.2 C 360.54,69.58 363.95,66.8 367.35,64.79 C 370.75,62.78 374.15,61.19 377.55,60.11 C 380.95,59.04 384.35,58.6 387.76,58.36 C 391.16,58.12 394.56,58.42 397.96,58.68 C 401.36,58.95 404.76,59.51 408.16,59.95 C 411.56,60.38 414.97,60.89 418.37,61.27 C 421.77,61.64 425.17,61.97 428.57,62.2 C 431.97,62.43 435.37,62.57 438.78,62.66 C 442.18,62.76 445.58,62.77 448.98,62.79 C 452.38,62.8 455.78,62.76 459.18,62.74 C 462.59,62.71 465.99,62.67 469.39,62.64 C 472.79,62.61 476.19,62.58 479.59,62.56 C 482.99,62.54 486.39,62.53 489.8,62.51 C 493.2,62.5 498.3,62.5 500,62.5" stroke="rgba(155, 67.67, 150.11, 1)" stroke-width="2" />
<path d="M 0,62.5 C 1.7,62.5 6.8,62.5 10.2,62.49 C 13.61,62.47 17.01,62.46 20.41,62.44 C 23.81,62.42 27.21,62.39 30.61,62.36 C 34.01,62.33 37.41,62.29 40.82,62.26 C 44.22,62.24 47.62,62.2 51.02,62.21 C 54.42,62.23 57.82,62.24 61.22,62.34 C 64.63,62.43 68.03,62.57 71.43,62.8 C 74.83,63.03 78.23,63.36 81.63,63.73 C 85.03,64.11 88.44,64.62 91.84,65.05 C 95.24,65.49 98.64,66.05 102.04,66.32 C 105.44,66.58 108.84,66.88 112.24,66.64 C 115.65,66.4 119.05,65.96 122.45,64.89 C 125.85,63.81 129.25,62.22 132.65,60.21 C 136.05,58.2 139.46,55.42 142.86,52.8 C 146.26,50.18 149.66,46.84 153.06,44.49 C 156.46,42.14 159.86,39.55 163.27,38.72 C 166.67,37.89 170.07,37.7 173.47,39.52 C 176.87,41.34 180.27,44.79 183.67,49.64 C 187.07,54.49 190.48,61.58 193.88,68.61 C 197.28,75.64 200.68,84.67 204.08,91.82 C 207.48,98.97 210.88,106.88 214.29,111.52 C 217.69,116.17 221.09,119.67 224.49,119.69 C 227.89,119.71 231.29,116.83 234.69,111.64 C 238.1,106.44 241.5,97.56 244.9,88.52 C 248.3,79.49 251.7,67.41 255.1,57.4 C 258.5,47.4 261.9,36.23 265.31,28.5 C 268.71,20.76 272.11,14.18 275.51,10.99 C 278.91,7.81 282.31,7.53 285.71,9.37 C 289.12,11.2 292.52,16.47 295.92,22 C 299.32,27.53 302.72,35.7 306.12,42.55 C 309.52,49.41 312.93,57.3 316.33,63.14 C 319.73,68.98 323.13,74.22 326.53,77.59 C 329.93,80.97 333.33,82.72 336.73,83.38 C 340.14,84.04 343.54,82.9 346.94,81.57 C 350.34,80.23 353.74,77.58 357.14,75.37 C 360.54,73.17 363.95,70.41 367.35,68.32 C 370.75,66.24 374.15,64.27 377.55,62.87 C 380.95,61.47 384.35,60.55 387.76,59.94 C 391.16,59.34 394.56,59.25 397.96,59.23 C 401.36,59.22 404.76,59.58 408.16,59.86 C 411.56,60.14 414.97,60.59 418.37,60.92 C 421.77,61.25 425.17,61.6 428.57,61.85 C 431.97,62.1 435.37,62.29 438.78,62.42 C 442.18,62.56 445.58,62.62 448.98,62.66 C 452.38,62.71 455.78,62.7 459.18,62.7 C 462.59,62.69 465.99,62.66 469.39,62.64 C 472.79,62.62 476.19,62.59 479.59,62.57 C 482.99,62.56 486.39,62.54 489.8,62.53 C 493.2,62.52 498.3,62.51 500,62.5" stroke="rgba(130, 81.33, 165.89, 1)" stroke-width="2" />
<path d="M 0,62.51 C 1.7,62.51 6.8,62.51 10.2,62.5 C 13.61,62.49 17.01,62.48 20.41,62.46 C 23.81,62.44 27.21,62.41 30.61,62.38 C 34.01,62.34 37.41,62.29 40.82,62.25 C 44.22,62.21 47.62,62.15 51.02,62.13 C 54.42,62.1 57.82,62.07 61.22,62.12 C 64.63,62.16 68.03,62.23 71.43,62.42 C 74.83,62.6 78.23,62.86 81.63,63.24 C 85.03,63.61 88.44,64.13 91.84,64.66 C 95.24,65.19 98.64,65.9 102.04,66.41 C 105.44,66.92 108.84,67.57 112.24,67.72 C 115.65,67.88 119.05,67.97 122.45,67.36 C 125.85,66.74 129.25,65.72 132.65,64.02 C 136.05,62.32 139.46,59.86 142.86,57.15 C 146.26,54.43 149.66,50.8 153.06,47.72 C 156.46,44.64 159.86,40.91 163.27,38.69 C 166.67,36.47 170.07,34.36 173.47,34.4 C 176.87,34.45 180.27,35.7 183.67,38.97 C 187.07,42.24 190.48,47.68 193.88,54.03 C 197.28,60.39 200.68,69.19 204.08,77.1 C 207.48,85.01 210.88,94.6 214.29,101.5 C 217.69,108.39 221.09,115.26 224.49,118.48 C 227.89,121.71 231.29,122.88 234.69,120.85 C 238.1,118.82 241.5,113.3 244.9,106.31 C 248.3,99.33 251.7,88.71 255.1,78.94 C 258.5,69.18 261.9,57.08 265.31,47.74 C 268.71,38.4 272.11,28.91 275.51,22.9 C 278.91,16.88 282.31,12.86 285.71,11.66 C 289.12,10.47 292.52,12.46 295.92,15.7 C 299.32,18.95 302.72,25.27 306.12,31.12 C 309.52,36.98 312.93,44.71 316.33,50.84 C 319.73,56.97 323.13,63.37 326.53,67.89 C 329.93,72.41 333.33,75.89 336.73,77.97 C 340.14,80.04 343.54,80.49 346.94,80.32 C 350.34,80.16 353.74,78.52 357.14,76.99 C 360.54,75.47 363.95,73.05 367.35,71.15 C 370.75,69.25 374.15,67.14 377.55,65.58 C 380.95,64.03 384.35,62.73 387.76,61.83 C 391.16,60.93 394.56,60.47 397.96,60.18 C 401.36,59.89 404.76,59.99 408.16,60.09 C 411.56,60.19 414.97,60.52 418.37,60.77 C 421.77,61.02 425.17,61.34 428.57,61.58 C 431.97,61.82 435.37,62.04 438.78,62.19 C 442.18,62.35 445.58,62.45 448.98,62.52 C 452.38,62.6 455.78,62.62 459.18,62.63 C 462.59,62.65 465.99,62.63 469.39,62.63 C 472.79,62.62 476.19,62.59 479.59,62.58 C 482.99,62.57 486.39,62.55 489.8,62.54 C 493.2,62.53 498.3,62.52 500,62.51" stroke="rgba(105, 95, 181.67, 1)" stroke-width="2" />
<path d="M 0,62.52 C 1.7,62.52 6.8,62.52 10.2,62.52 C 13.61,62.51 17.01,62.51 20.41,62.49 C 23.81,62.47 27.21,62.45 30.61,62.41 C 34.01,62.38 37.41,62.33 40.82,62.27 C 44.22,62.22 47.62,62.14 51.02,62.08 C 54.42,62.03 57.82,61.95 61.22,61.94 C 64.63,61.93 68.03,61.92 71.43,62.04 C 74.83,62.16 78.23,62.33 81.63,62.65 C 85.03,62.98 88.44,63.44 91.84,64 C 95.24,64.56 98.64,65.34 102.04,66.03 C 105.44,66.73 108.84,67.64 112.24,68.18 C 115.65,68.71 119.05,69.33 122.45,69.24 C 125.85,69.15 129.25,68.83 132.65,67.65 C 136.05,66.46 139.46,64.62 142.86,62.13 C 146.26,59.65 149.66,56.17 153.06,52.73 C 156.46,49.3 159.86,44.87 163.27,41.53 C 166.67,38.19 170.07,34.41 173.47,32.68 C 176.87,30.95 180.27,29.84 183.67,31.14 C 187.07,32.44 190.48,35.57 193.88,40.48 C 197.28,45.4 200.68,52.91 204.08,60.62 C 207.48,68.34 210.88,78.45 214.29,86.77 C 217.69,95.09 221.09,104.48 224.49,110.52 C 227.89,116.56 231.29,121.64 234.69,123.02 C 238.1,124.41 241.5,122.9 244.9,118.82 C 248.3,114.73 251.7,106.85 255.1,98.5 C 258.5,90.16 261.9,78.58 265.31,68.76 C 268.71,58.93 272.11,47.68 275.51,39.57 C 278.91,31.46 282.31,24.18 285.71,20.09 C 289.12,16.01 292.52,14.49 295.92,15.05 C 299.32,15.62 302.72,19.33 306.12,23.47 C 309.52,27.62 312.93,34.27 316.33,39.95 C 319.73,45.62 323.13,52.41 326.53,57.53 C 329.93,62.65 333.33,67.45 336.73,70.68 C 340.14,73.92 343.54,75.9 346.94,76.93 C 350.34,77.96 353.74,77.53 357.14,76.87 C 360.54,76.2 363.95,74.43 367.35,72.94 C 370.75,71.45 374.15,69.45 377.55,67.92 C 380.95,66.4 384.35,64.89 387.76,63.8 C 391.16,62.72 394.56,61.94 397.96,61.41 C 401.36,60.88 404.76,60.71 408.16,60.61 C 411.56,60.51 414.97,60.68 418.37,60.82 C 421.77,60.96 425.17,61.23 428.57,61.42 C 431.97,61.62 435.37,61.84 438.78,62 C 442.18,62.16 445.58,62.29 448.98,62.38 C 452.38,62.47 455.78,62.52 459.18,62.55 C 462.59,62.59 465.99,62.59 469.39,62.6 C 472.79,62.6 476.19,62.58 479.59,62.58 C 482.99,62.57 486.39,62.55 489.8,62.54 C 493.2,62.53 498.3,62.52 500,62.52" stroke="rgba(80, 108.67, 197.44, 1)" stroke-width="2" />
<path d="M 0,62.52 C 1.7,62.52 6.8,62.53 10.2,62.53 C 13.61,62.53 17.01,62.53 20.41,62.52 C 23.81,62.5 27.21,62.49 30.61,62.46 C 34.01,62.42 37.41,62.38 40.82,62.32 C 44.22,62.26 47.62,62.17 51.02,62.09 C 54.42,62.01 57.82,61.9 61.22,61.83 C 64.63,61.77 68.03,61.69 71.43,61.72 C 74.83,61.76 78.23,61.81 81.63,62.05 C 85.03,62.29 88.44,62.63 91.84,63.16 C 95.24,63.69 98.64,64.43 102.04,65.23 C 105.44,66.02 108.84,67.1 112.24,67.94 C 115.65,68.79 119.05,69.86 122.45,70.31 C 125.85,70.76 129.25,71.17 132.65,70.65 C 136.05,70.13 139.46,69.12 142.86,67.17 C 146.26,65.21 149.66,62.3 153.06,58.92 C 156.46,55.54 159.86,50.96 163.27,46.9 C 166.67,42.84 170.07,37.85 173.47,34.55 C 176.87,31.25 180.27,27.91 183.67,27.09 C 187.07,26.26 190.48,26.7 193.88,29.58 C 197.28,32.46 200.68,37.78 204.08,44.37 C 207.48,50.96 210.88,60.38 214.29,69.11 C 217.69,77.85 221.09,88.64 224.49,96.77 C 227.89,104.9 231.29,113.27 234.69,117.9 C 238.1,122.52 241.5,125.22 244.9,124.53 C 248.3,123.83 251.7,119.64 255.1,113.72 C 258.5,107.8 261.9,98.14 265.31,89.02 C 268.71,79.9 272.11,68.25 275.51,59.02 C 278.91,49.79 282.31,40.12 285.71,33.64 C 289.12,27.16 292.52,22.31 295.92,20.12 C 299.32,17.94 302.72,18.59 306.12,20.53 C 309.52,22.48 312.93,27.24 316.33,31.78 C 319.73,36.31 323.13,42.67 326.53,47.77 C 329.93,52.88 333.33,58.41 336.73,62.41 C 340.14,66.42 343.54,69.7 346.94,71.8 C 350.34,73.9 353.74,74.73 357.14,75.01 C 360.54,75.29 363.95,74.37 367.35,73.47 C 370.75,72.57 374.15,70.92 377.55,69.61 C 380.95,68.3 384.35,66.76 387.76,65.62 C 391.16,64.48 394.56,63.48 397.96,62.77 C 401.36,62.06 404.76,61.64 408.16,61.36 C 411.56,61.08 414.97,61.07 418.37,61.08 C 421.77,61.08 425.17,61.26 428.57,61.39 C 431.97,61.52 435.37,61.72 438.78,61.87 C 442.18,62.01 445.58,62.15 448.98,62.25 C 452.38,62.35 455.78,62.42 459.18,62.47 C 462.59,62.52 465.99,62.54 469.39,62.55 C 472.79,62.57 476.19,62.56 479.59,62.56 C 482.99,62.56 486.39,62.55 489.8,62.54 C 493.2,62.54 498.3,62.53 500,62.52" stroke="rgba(55, 122.33, 213.22, 1)" stroke-width="2" />
<path d="M 0,62.52 C 1.7,62.53 6.8,62.54 10.2,62.54 C 13.61,62.54 17.01,62.55 20.41,62.54 C 23.81,62.54 27.21,62.53 30.61,62.5 C 34.01,62.48 37.41,62.44 40.82,62.39 C 44.22,62.33 47.62,62.24 51.02,62.15 C 54.42,62.05 57.82,61.92 61.22,61.81 C 64.63,61.7 68.03,61.55 71.43,61.5 C 74.83,61.45 78.23,61.38 81.63,61.5 C 85.03,61.63 88.44,61.81 91.84,62.25 C 95.24,62.68 98.64,63.29 102.04,64.09 C 105.44,64.89 108.84,66 112.24,67.06 C 115.65,68.11 119.05,69.5 122.45,70.44 C 125.85,71.37 129.25,72.47 132.65,72.67 C 136.05,72.87 139.46,72.83 142.86,71.64 C 146.26,70.45 149.66,68.46 153.06,65.54 C 156.46,62.63 159.86,58.45 163.27,54.16 C 166.67,49.86 170.07,44.27 173.47,39.79 C 176.87,35.32 180.27,30.16 183.67,27.31 C 187.07,24.45 190.48,22.16 193.88,22.66 C 197.28,23.16 200.68,25.64 204.08,30.31 C 207.48,34.97 210.88,42.57 214.29,50.66 C 217.69,58.76 221.09,69.64 224.49,78.88 C 227.89,88.12 231.29,98.77 234.69,106.09 C 238.1,113.4 241.5,119.98 244.9,122.76 C 248.3,125.54 251.7,125.54 255.1,122.76 C 258.5,119.98 261.9,113.4 265.31,106.09 C 268.71,98.77 272.11,88.12 275.51,78.88 C 278.91,69.64 282.31,58.76 285.71,50.66 C 289.12,42.57 292.52,34.97 295.92,30.31 C 299.32,25.64 302.72,23.16 306.12,22.66 C 309.52,22.16 312.93,24.45 316.33,27.31 C 319.73,30.16 323.13,35.32 326.53,39.79 C 329.93,44.27 333.33,49.86 336.73,54.16 C 340.14,58.45 343.54,62.63 346.94,65.54 C 350.34,68.46 353.74,70.45 357.14,71.64 C 360.54,72.83 363.95,72.87 367.35,72.67 C 370.75,72.47 374.15,71.37 377.55,70.44 C 380.95,69.5 384.35,68.11 387.76,67.06 C 391.16,66 394.56,64.89 397.96,64.09 C 401.36,63.29 404.76,62.68 408.16,62.25 C 411.56,61.81 414.97,61.63 418.37,61.5 C 421.77,61.38 425.17,61.45 428.57,61.5 C 431.97,61.55 435.37,61.7 438.78,61.81 C 442.18,61.92 445.58,62.05 448.98,62.15 C 452.38,62.24 455.78,62.33 459.18,62.39 C 462.59,62.44 465.99,62.48 469.39,62.5 C 472.79,62.53 476.19,62.54 479.59,62.54 C 482.99,62.55 486.39,62.54 489.8,62.54 C 493.2,62.54 498.3,62.53 500,62.52" stroke="rgba(30, 136, 229, 1)" stroke-width="2" />
</svg>