<svg viewBox="-1 -1 752 377" xmlns="http://www.w3.org/2000/svg" font-family="IBM Plex Sans" font-weight="300" width="750" height="375" fill="none" stroke="#000000">
<line x1="82.68" y1="333.66" x2="667.32" y2="333.66" stroke="#ddd" />
<line x1="82.68" y1="260.58" x2="667.32" y2="260.58" stroke="#ddd" />
<line x1="82.68" y1="187.5" x2="667.32" y2="187.5" stroke="#ddd" />
<line x1="82.68" y1="114.42" x2="667.32" y2="114.42" stroke="#ddd" />
<line x1="82.68" y1="41.34" x2="667.32" y2="41.34" stroke="#ddd" />
<line x1="82.68" y1="333.66" x2="82.68" y2="41.34" stroke="#ddd" />
<line x1="228.84" y1="333.66" x2="228.84" y2="41.34" stroke="#ddd" />
<line x1="375" y1="333.66" x2="375" y2="41.34" stroke="#ddd" />
<line x1="521.16" y1="333.66" x2="521.16" y2="41.34" stroke="#ddd" />
<line x1="667.32" y1="333.66" x2="667.32" y2="41.34" stroke="#ddd" />
<polyline points="82.68,187.5 88.59,181.32 94.49,175.16 100.4,169.06 106.3,163.03 112.21,157.1 118.11,151.29 124.02,145.62 129.92,140.13 135.83,134.82 141.73,129.73 147.64,124.87 153.55,120.26 159.45,115.92 165.36,111.87 171.26,108.13 177.17,104.7 183.07,101.61 188.98,98.87 194.88,96.48 200.79,94.45 206.69,92.81 212.6,91.54 218.51,90.66 224.41,90.17 230.32,90.07 236.22,90.37 242.13,91.05 248.03,92.13 253.94,93.58 259.84,95.42 265.75,97.63 271.65,100.19 277.56,103.11 283.47,106.37 289.37,109.96 295.28,113.86 301.18,118.06 307.09,122.53 312.99,127.27 318.9,132.25 324.8,137.45 330.71,142.85 336.61,148.43 342.52,154.17 348.43,160.05 354.33,166.03 360.24,172.1 366.14,178.24 372.05,184.41 377.95,190.59 383.86,196.76 389.76,202.9 395.67,208.97 401.57,214.95 407.48,220.83 413.39,226.57 419.29,232.15 425.2,237.55 431.1,242.75 437.01,247.73 442.91,252.47 448.82,256.94 454.72,261.14 460.63,265.04 466.53,268.63 472.44,271.89 478.35,274.81 484.25,277.37 490.16,279.58 496.06,281.42 501.97,282.87 507.87,283.95 513.78,284.63 519.68,284.93 525.59,284.83 531.49,284.34 537.4,283.46 543.31,282.19 549.21,280.55 555.12,278.52 561.02,276.13 566.93,273.39 572.83,270.3 578.74,266.87 584.64,263.13 590.55,259.08 596.45,254.74 602.36,250.13 608.27,245.27 614.17,240.18 620.08,234.87 625.98,229.38 631.89,223.71 637.79,217.9 643.7,211.97 649.6,205.94 655.51,199.84 661.41,193.68 667.32,187.5" stroke="#1e88e5" stroke-width="2" />
<line x1="82.68" y1="333.66" x2="667.32" y2="333.66" />
<line x1="82.68" y1="333.66" x2="82.68" y2="327.46" />
<line x1="228.84" y1="333.66" x2="228.84" y2="327.46" />
<line x1="375" y1="333.66" x2="375" y2="327.46" />
<line x1="521.16" y1="333.66" x2="521.16" y2="327.46" />
<line x1="667.32" y1="333.66" x2="667.32" y2="327.46" />
<text x="77.1" y="358.77" font-size="18.6px" fill="#000000" stroke="none">0</text>
<text x="209.57" y="358.77" font-size="18.6px" fill="#000000" stroke="none">1.57</text>
<text x="355.73" y="358.77" font-size="18.6px" fill="#000000" stroke="none">3.14</text>
<text x="501.89" y="358.77" font-size="18.6px" fill="#000000" stroke="none">4.71</text>
<text x="648.05" y="358.77" font-size="18.6px" fill="#000000" stroke="none">6.28</text>
<line x1="82.68" y1="333.66" x2="82.68" y2="41.34" />
<line x1="82.68" y1="333.66" x2="88.88" y2="333.66" />
<line x1="82.68" y1="260.58" x2="88.88" y2="260.58" />
<line x1="82.68" y1="187.5" x2="88.88" y2="187.5" />
<line x1="82.68" y1="114.42" x2="88.88" y2="114.42" />
<line x1="82.68" y1="41.34" x2="88.88" y2="41.34" />
<text x="35.47" y="340.17" font-size="18.6px" fill="#000000" stroke="none">-1.5</text>
<text x="24.31" y="267.09" font-size="18.6px" fill="#000000" stroke="none">-0.75</text>
<text x="59.12" y="194.01" font-size="18.6px" fill="#000000" stroke="none">0</text>
<text x="31.73" y="120.93" font-size="18.6px" fill="#000000" stroke="none">0.75</text>
<text x="42.89" y="47.85" font-size="18.6px" fill="#000000" stroke="none">1.5</text>
</svg>