<svg viewBox="-1 -1 908 554.88" xmlns="http://www.w3.org/2000/svg" font-family="IBM Plex Sans" font-weight="300" width="906" height="552.88" fill="none" stroke="black">
<line x1="99.88" y1="453" x2="806.12" y2="453" stroke="#ddd" />
<line x1="99.88" y1="364.72" x2="806.12" y2="364.72" stroke="#ddd" />
<line x1="99.88" y1="276.44" x2="806.12" y2="276.44" stroke="#ddd" />
<line x1="99.88" y1="188.16" x2="806.12" y2="188.16" stroke="#ddd" />
<line x1="99.88" y1="99.88" x2="806.12" y2="99.88" stroke="#ddd" />
<line x1="99.88" y1="453" x2="99.88" y2="99.88" stroke="#ddd" />
<line x1="276.44" y1="453" x2="276.44" y2="99.88" stroke="#ddd" />
<line x1="453" y1="453" x2="453" y2="99.88" stroke="#ddd" />
<line x1="629.56" y1="453" x2="629.56" y2="99.88" stroke="#ddd" />
<line x1="806.12" y1="453" x2="806.12" y2="99.88" stroke="#ddd" />
<line x1="99.88" y1="453" x2="806.12" y2="453" />
<line x1="99.88" y1="453" x2="99.88" y2="445.51" />
<line x1="276.44" y1="453" x2="276.44" y2="445.51" />
<line x1="453" y1="453" x2="453" y2="445.51" />
<line x1="629.56" y1="453" x2="629.56" y2="445.51" />
<line x1="806.12" y1="453" x2="806.12" y2="445.51" />
<text x="93.14" y="483.34" font-size="22.47px" fill="black" stroke="none" loc="0">0</text>
<text x="253.16" y="483.34" font-size="22.47px" fill="black" stroke="none" loc="1.57">1.57</text>
<text x="429.72" y="483.34" font-size="22.47px" fill="black" stroke="none" loc="3.14">3.14</text>
<text x="606.28" y="483.34" font-size="22.47px" fill="black" stroke="none" loc="4.71">4.71</text>
<text x="782.84" y="483.34" font-size="22.47px" fill="black" stroke="none" loc="6.28">6.28</text>
<line x1="99.88" y1="453" x2="99.88" y2="99.88" />
<line x1="99.88" y1="453" x2="107.37" y2="453" />
<line x1="99.88" y1="364.72" x2="107.37" y2="364.72" />
<line x1="99.88" y1="276.44" x2="107.37" y2="276.44" />
<line x1="99.88" y1="188.16" x2="107.37" y2="188.16" />
<line x1="99.88" y1="99.88" x2="107.37" y2="99.88" />
<text x="46.6" y="460.87" font-size="22.47px" fill="black" stroke="none" loc="-1.5">-1.5</text>
<text x="33.11" y="372.58" font-size="22.47px" fill="black" stroke="none" loc="-0.75">-0.75</text>
<text x="75.16" y="284.3" font-size="22.47px" fill="black" stroke="none" loc="0">0</text>
<text x="42.08" y="196.02" font-size="22.47px" fill="black" stroke="none" loc="0.75">0.75</text>
<text x="55.56" y="107.74" font-size="22.47px" fill="black" stroke="none" loc="1.5">1.5</text>
<polyline points="99.88,276.44 107.01,268.97 114.15,261.54 121.28,254.16 128.41,246.88 135.55,239.71 142.68,232.69 149.81,225.85 156.95,219.21 164.08,212.8 171.22,206.65 178.35,200.78 185.48,195.21 192.62,189.97 199.75,185.08 206.88,180.56 214.02,176.42 221.15,172.69 228.29,169.37 235.42,166.48 242.55,164.04 249.69,162.05 256.82,160.52 263.95,159.46 271.09,158.86 278.22,158.75 285.36,159.1 292.49,159.93 299.62,161.23 306.76,162.99 313.89,165.21 321.03,167.87 328.16,170.97 335.29,174.5 342.43,178.44 349.56,182.77 356.69,187.48 363.83,192.55 370.96,197.96 378.1,203.68 385.23,209.69 392.36,215.98 399.5,222.5 406.63,229.25 413.76,236.18 420.9,243.28 428.03,250.51 435.17,257.84 442.3,265.25 449.43,272.7 456.57,280.17 463.7,287.63 470.83,295.04 477.97,302.37 485.1,309.6 492.24,316.7 499.37,323.63 506.5,330.38 513.64,336.9 520.77,343.19 527.9,349.2 535.04,354.92 542.17,360.33 549.31,365.4 556.44,370.11 563.57,374.44 570.71,378.38 577.84,381.9 584.97,385.01 592.11,387.67 599.24,389.89 606.38,391.65 613.51,392.95 620.64,393.78 627.78,394.13 634.91,394.01 642.05,393.42 649.18,392.36 656.31,390.83 663.45,388.84 670.58,386.4 677.71,383.51 684.85,380.19 691.98,376.46 699.12,372.32 706.25,367.8 713.38,362.91 720.52,357.67 727.65,352.1 734.78,346.23 741.92,340.08 749.05,333.67 756.19,327.03 763.32,320.19 770.45,313.17 777.59,306 784.72,298.72 791.85,291.34 798.99,283.9 806.12,276.44" stroke="#1e88e5" stroke-width="2" />
</svg>