<svg viewBox="-1 -1 2002 1002" xmlns="http://www.w3.org/2000/svg" font-family="IBM Plex Sans" font-weight="300" width="2000" height="1000" fill="none" stroke="black">
<line x1="220.48" y1="889.76" x2="1779.52" y2="889.76" stroke="#ddd" />
<line x1="220.48" y1="694.88" x2="1779.52" y2="694.88" stroke="#ddd" />
<line x1="220.48" y1="500" x2="1779.52" y2="500" stroke="#ddd" />
<line x1="220.48" y1="305.12" x2="1779.52" y2="305.12" stroke="#ddd" />
<line x1="220.48" y1="110.24" x2="1779.52" y2="110.24" stroke="#ddd" />
<line x1="220.48" y1="889.76" x2="220.48" y2="110.24" stroke="#ddd" />
<line x1="610.24" y1="889.76" x2="610.24" y2="110.24" stroke="#ddd" />
<line x1="1000" y1="889.76" x2="1000" y2="110.24" stroke="#ddd" />
<line x1="1389.76" y1="889.76" x2="1389.76" y2="110.24" stroke="#ddd" />
<line x1="1779.52" y1="889.76" x2="1779.52" y2="110.24" stroke="#ddd" />
<polyline points="220.48,500 236.23,483.52 251.98,467.11 267.72,450.83 283.47,434.74 299.22,418.92 314.97,403.43 330.72,388.32 346.46,373.67 362.21,359.52 377.96,345.94 393.71,332.98 409.46,320.69 425.2,309.12 440.95,298.33 456.7,288.34 472.45,279.21 488.19,270.96 503.94,263.64 519.69,257.27 535.44,251.88 551.19,247.48 566.93,244.11 582.68,241.76 598.43,240.45 614.18,240.19 629.93,240.98 645.67,242.81 661.42,245.67 677.17,249.56 692.92,254.45 708.66,260.34 724.41,267.19 740.16,274.97 755.91,283.67 771.66,293.23 787.4,303.63 803.15,314.81 818.9,326.75 834.65,339.38 850.4,352.66 866.14,366.53 881.89,380.93 897.64,395.82 913.39,411.13 929.13,426.79 944.88,442.75 960.63,458.94 976.38,475.3 992.13,491.76 1007.87,508.24 1023.62,524.7 1039.37,541.06 1055.12,557.25 1070.87,573.21 1086.61,588.87 1102.36,604.18 1118.11,619.07 1133.86,633.47 1149.6,647.34 1165.35,660.62 1181.1,673.25 1196.85,685.19 1212.6,696.37 1228.34,706.77 1244.09,716.33 1259.84,725.03 1275.59,732.81 1291.34,739.66 1307.08,745.55 1322.83,750.44 1338.58,754.33 1354.33,757.19 1370.07,759.02 1385.82,759.81 1401.57,759.55 1417.32,758.24 1433.07,755.89 1448.81,752.52 1464.56,748.12 1480.31,742.73 1496.06,736.36 1511.81,729.04 1527.55,720.79 1543.3,711.66 1559.05,701.67 1574.8,690.88 1590.54,679.31 1606.29,667.02 1622.04,654.06 1637.79,640.48 1653.54,626.33 1669.28,611.68 1685.03,596.57 1700.78,581.08 1716.53,565.26 1732.28,549.17 1748.02,532.89 1763.77,516.48 1779.52,500" stroke="#1e88e5" stroke-width="2" />
<line x1="220.48" y1="889.76" x2="1779.52" y2="889.76" />
<line x1="220.48" y1="889.76" x2="220.48" y2="873.22" />
<line x1="610.24" y1="889.76" x2="610.24" y2="873.22" />
<line x1="1000" y1="889.76" x2="1000" y2="873.22" />
<line x1="1389.76" y1="889.76" x2="1389.76" y2="873.22" />
<line x1="1779.52" y1="889.76" x2="1779.52" y2="873.22" />
<text x="205.6" y="956.73" font-size="49.61px" fill="black" stroke="none">0</text>
<text x="558.85" y="956.73" font-size="49.61px" fill="black" stroke="none">1.57</text>
<text x="948.61" y="956.73" font-size="49.61px" fill="black" stroke="none">3.14</text>
<text x="1338.37" y="956.73" font-size="49.61px" fill="black" stroke="none">4.71</text>
<text x="1728.12" y="956.73" font-size="49.61px" fill="black" stroke="none">6.28</text>
<line x1="220.48" y1="889.76" x2="220.48" y2="110.24" />
<line x1="220.48" y1="889.76" x2="237.02" y2="889.76" />
<line x1="220.48" y1="694.88" x2="237.02" y2="694.88" />
<line x1="220.48" y1="500" x2="237.02" y2="500" />
<line x1="220.48" y1="305.12" x2="237.02" y2="305.12" />
<line x1="220.48" y1="110.24" x2="237.02" y2="110.24" />
<g justify="right">
<text x="78.06" y="907.12" font-size="49.61px" fill="black" stroke="none">-1.5</text>
<text x="48.29" y="712.24" font-size="49.61px" fill="black" stroke="none">-0.75</text>
<text x="141.11" y="517.36" font-size="49.61px" fill="black" stroke="none">0</text>
<text x="68.08" y="322.48" font-size="49.61px" fill="black" stroke="none">0.75</text>
<text x="97.85" y="127.6" font-size="49.61px" fill="black" stroke="none">1.5</text>
</g>
</svg>