<svg viewBox="-1 -1 908 455" xmlns="http://www.w3.org/2000/svg" font-family="IBM Plex Sans" font-weight="300" width="906" height="453" fill="none" stroke="black">
<line x1="99.88" y1="403.06" x2="806.12" y2="403.06" stroke="#ddd" />
<line x1="99.88" y1="314.78" x2="806.12" y2="314.78" stroke="#ddd" />
<line x1="99.88" y1="226.5" x2="806.12" y2="226.5" stroke="#ddd" />
<line x1="99.88" y1="138.22" x2="806.12" y2="138.22" stroke="#ddd" />
<line x1="99.88" y1="49.94" x2="806.12" y2="49.94" stroke="#ddd" />
<line x1="99.88" y1="403.06" x2="99.88" y2="49.94" stroke="#ddd" />
<line x1="276.44" y1="403.06" x2="276.44" y2="49.94" stroke="#ddd" />
<line x1="453" y1="403.06" x2="453" y2="49.94" stroke="#ddd" />
<line x1="629.56" y1="403.06" x2="629.56" y2="49.94" stroke="#ddd" />
<line x1="806.12" y1="403.06" x2="806.12" y2="49.94" stroke="#ddd" />
<line x1="99.88" y1="403.06" x2="806.12" y2="403.06" />
<line x1="99.88" y1="403.06" x2="99.88" y2="395.57" />
<line x1="276.44" y1="403.06" x2="276.44" y2="395.57" />
<line x1="453" y1="403.06" x2="453" y2="395.57" />
<line x1="629.56" y1="403.06" x2="629.56" y2="395.57" />
<line x1="806.12" y1="403.06" x2="806.12" y2="395.57" />
<text x="93.14" y="433.4" font-size="22.47px" fill="black" stroke="none" loc="0">0</text>
<text x="253.16" y="433.4" font-size="22.47px" fill="black" stroke="none" loc="1.57">1.57</text>
<text x="429.72" y="433.4" font-size="22.47px" fill="black" stroke="none" loc="3.14">3.14</text>
<text x="606.28" y="433.4" font-size="22.47px" fill="black" stroke="none" loc="4.71">4.71</text>
<text x="782.84" y="433.4" font-size="22.47px" fill="black" stroke="none" loc="6.28">6.28</text>
<line x1="99.88" y1="403.06" x2="99.88" y2="49.94" />
<line x1="99.88" y1="403.06" x2="107.37" y2="403.06" />
<line x1="99.88" y1="314.78" x2="107.37" y2="314.78" />
<line x1="99.88" y1="226.5" x2="107.37" y2="226.5" />
<line x1="99.88" y1="138.22" x2="107.37" y2="138.22" />
<line x1="99.88" y1="49.94" x2="107.37" y2="49.94" />
<text x="46.6" y="410.93" font-size="22.47px" fill="black" stroke="none" loc="-1.5">-1.5</text>
<text x="33.11" y="322.65" font-size="22.47px" fill="black" stroke="none" loc="-0.75">-0.75</text>
<text x="75.16" y="234.37" font-size="22.47px" fill="black" stroke="none" loc="0">0</text>
<text x="42.08" y="146.08" font-size="22.47px" fill="black" stroke="none" loc="0.75">0.75</text>
<text x="55.56" y="57.8" font-size="22.47px" fill="black" stroke="none" loc="1.5">1.5</text>
<polyline points="99.88,226.5 107.01,219.03 114.15,211.6 121.28,204.22 128.41,196.94 135.55,189.77 142.68,182.75 149.81,175.91 156.95,169.27 164.08,162.86 171.22,156.71 178.35,150.84 185.48,145.27 192.62,140.03 199.75,135.14 206.88,130.62 214.02,126.48 221.15,122.75 228.29,119.43 235.42,116.54 242.55,114.1 249.69,112.11 256.82,110.58 263.95,109.52 271.09,108.93 278.22,108.81 285.36,109.16 292.49,109.99 299.62,111.29 306.76,113.05 313.89,115.27 321.03,117.93 328.16,121.03 335.29,124.56 342.43,128.5 349.56,132.83 356.69,137.54 363.83,142.61 370.96,148.02 378.1,153.74 385.23,159.75 392.36,166.04 399.5,172.56 406.63,179.31 413.76,186.24 420.9,193.34 428.03,200.57 435.17,207.9 442.3,215.31 449.43,222.77 456.57,230.23 463.7,237.69 470.83,245.1 477.97,252.43 485.1,259.66 492.24,266.76 499.37,273.69 506.5,280.44 513.64,286.96 520.77,293.25 527.9,299.26 535.04,304.98 542.17,310.39 549.31,315.46 556.44,320.17 563.57,324.5 570.71,328.44 577.84,331.97 584.97,335.07 592.11,337.73 599.24,339.95 606.38,341.71 613.51,343.01 620.64,343.84 627.78,344.19 634.91,344.07 642.05,343.48 649.18,342.42 656.31,340.89 663.45,338.9 670.58,336.46 677.71,333.57 684.85,330.25 691.98,326.52 699.12,322.38 706.25,317.86 713.38,312.97 720.52,307.73 727.65,302.16 734.78,296.29 741.92,290.14 749.05,283.73 756.19,277.09 763.32,270.25 770.45,263.23 777.59,256.06 784.72,248.78 791.85,241.4 798.99,233.97 806.12,226.5" stroke="#1e88e5" stroke-width="2" />
</svg>