<svg viewBox="-1 -1 1002 502" xmlns="http://www.w3.org/2000/svg" font-family="IBM Plex Sans" font-weight="300" width="1000" height="500" fill="none" stroke="black">
<line x1="110.24" y1="444.88" x2="889.76" y2="444.88" stroke="#ddd" />
<line x1="110.24" y1="347.44" x2="889.76" y2="347.44" stroke="#ddd" />
<line x1="110.24" y1="250" x2="889.76" y2="250" stroke="#ddd" />
<line x1="110.24" y1="152.56" x2="889.76" y2="152.56" stroke="#ddd" />
<line x1="110.24" y1="55.12" x2="889.76" y2="55.12" stroke="#ddd" />
<line x1="110.24" y1="444.88" x2="110.24" y2="55.12" stroke="#ddd" />
<line x1="305.12" y1="444.88" x2="305.12" y2="55.12" stroke="#ddd" />
<line x1="500" y1="444.88" x2="500" y2="55.12" stroke="#ddd" />
<line x1="694.88" y1="444.88" x2="694.88" y2="55.12" stroke="#ddd" />
<line x1="889.76" y1="444.88" x2="889.76" y2="55.12" stroke="#ddd" />
<polyline points="110.24,250 118.11,241.76 125.99,233.55 133.86,225.41 141.74,217.37 149.61,209.46 157.48,201.71 165.36,194.16 173.23,186.83 181.11,179.76 188.98,172.97 196.85,166.49 204.73,160.35 212.6,154.56 220.48,149.16 228.35,144.17 236.22,139.6 244.1,135.48 251.97,131.82 259.85,128.64 267.72,125.94 275.59,123.74 283.47,122.05 291.34,120.88 299.21,120.23 307.09,120.1 314.96,120.49 322.84,121.4 330.71,122.83 338.58,124.78 346.46,127.23 354.33,130.17 362.21,133.59 370.08,137.49 377.95,141.83 385.83,146.61 393.7,151.81 401.58,157.41 409.45,163.37 417.32,169.69 425.2,176.33 433.07,183.26 440.95,190.47 448.82,197.91 456.69,205.56 464.57,213.4 472.44,221.38 480.32,229.47 488.19,237.65 496.06,245.88 503.94,254.12 511.81,262.35 519.68,270.53 527.56,278.62 535.43,286.6 543.31,294.44 551.18,302.09 559.05,309.53 566.93,316.74 574.8,323.67 582.68,330.31 590.55,336.63 598.42,342.59 606.3,348.19 614.17,353.39 622.05,358.17 629.92,362.51 637.79,366.41 645.67,369.83 653.54,372.77 661.42,375.22 669.29,377.17 677.16,378.6 685.04,379.51 692.91,379.9 700.79,379.77 708.66,379.12 716.53,377.95 724.41,376.26 732.28,374.06 740.15,371.36 748.03,368.18 755.9,364.52 763.78,360.4 771.65,355.83 779.52,350.84 787.4,345.44 795.27,339.65 803.15,333.51 811.02,327.03 818.89,320.24 826.77,313.17 834.64,305.84 842.52,298.29 850.39,290.54 858.26,282.63 866.14,274.59 874.01,266.45 881.89,258.24 889.76,250" stroke="#1e88e5" stroke-width="2" />
<line x1="110.24" y1="444.88" x2="889.76" y2="444.88" />
<line x1="110.24" y1="444.88" x2="110.24" y2="436.61" />
<line x1="305.12" y1="444.88" x2="305.12" y2="436.61" />
<line x1="500" y1="444.88" x2="500" y2="436.61" />
<line x1="694.88" y1="444.88" x2="694.88" y2="436.61" />
<line x1="889.76" y1="444.88" x2="889.76" y2="436.61" />
<text x="102.8" y="478.37" font-size="24.8px" fill="black" stroke="none">0</text>
<text x="279.42" y="478.37" font-size="24.8px" fill="black" stroke="none">1.57</text>
<text x="474.3" y="478.37" font-size="24.8px" fill="black" stroke="none">3.14</text>
<text x="669.18" y="478.37" font-size="24.8px" fill="black" stroke="none">4.71</text>
<text x="864.06" y="478.37" font-size="24.8px" fill="black" stroke="none">6.28</text>
<line x1="110.24" y1="444.88" x2="110.24" y2="55.12" />
<line x1="110.24" y1="444.88" x2="118.51" y2="444.88" />
<line x1="110.24" y1="347.44" x2="118.51" y2="347.44" />
<line x1="110.24" y1="250" x2="118.51" y2="250" />
<line x1="110.24" y1="152.56" x2="118.51" y2="152.56" />
<line x1="110.24" y1="55.12" x2="118.51" y2="55.12" />
<g justify="right">
<text x="39.03" y="453.56" font-size="24.8px" fill="black" stroke="none">-1.5</text>
<text x="24.15" y="356.12" font-size="24.8px" fill="black" stroke="none">-0.75</text>
<text x="70.55" y="258.68" font-size="24.8px" fill="black" stroke="none">0</text>
<text x="34.04" y="161.24" font-size="24.8px" fill="black" stroke="none">0.75</text>
<text x="48.92" y="63.8" font-size="24.8px" fill="black" stroke="none">1.5</text>
</g>
</svg>